# xmcd CD database file
#
# Track frame offsets:
#	150
#	23196
#	50864
#	76676
#	88727
#
# Disc length: 1380 seconds
#
# Revision: 0
# Processed by: cddbd v1.5.1PL0 Copyright (c) Steve Scherf et al.
# Submitted via: CDex 1.51
#
DISCID=35056205
DTITLE=Jamento - Jamento
DYEAR=1998
DGENRE=Jazz
TTITLE0=Happy Music
TTITLE1=Baby Blues
TTITLE2=Fog Over The Sea
TTITLE3=Tabja's First Salsa Tune
TTITLE4=Unreleased
EXTD=YEAR: 1998
EXTT0=
EXTT1=
EXTT2=
EXTT3=
EXTT4=
PLAYORDER=
